<?xml version="1.0" encoding="utf-8"?>
<!-- Generator: Adobe Illustrator 22.1.0, SVG Export Plug-In . SVG Version: 6.00 Build 0)  -->
<svg version="1.1" id="Layer_1" xmlns="http://www.w3.org/2000/svg" xmlns:xlink="http://www.w3.org/1999/xlink" x="0px" y="0px"
	 viewBox="0 0 256 256" style="enable-background:new 0 0 256 256;" xml:space="preserve">
<style type="text/css">
	.st0{fill:#D73735;}
	.st1{fill:#F85252;}
	.st2{fill:#EDAF85;}
	.st3{fill:#F7C09A;}
	.st4{fill:#D8D6D7;}
	.st5{fill:#FFFFFF;}
	.st6{fill:#1C868E;}
	.st7{fill:#40C4DF;}
	.st8{fill:#491352;}
	.st9{fill:#56C1B3;}
	.st10{fill:#7BEFE4;}
</style>
<g>
	<rect x="114.17" y="147.67" class="st4" width="27.66" height="84.16"/>
	<rect x="131.09" y="147.67" class="st5" width="10.74" height="84.16"/>
	<path class="st4" d="M245.36,165.897H10.64c-2.761,0-5-2.239-5-5V8c0-2.761,2.239-5,5-5h234.72c2.761,0,5,2.239,5,5v152.897
		C250.36,163.658,248.121,165.897,245.36,165.897z"/>
	<path class="st9" d="M237.36,21v126.9c0,2.76-2.24,5-5,5H23.64c-2.76,0-5-2.24-5-5V21c0-2.76,2.24-5,5-5h208.72
		C235.12,16,237.36,18.24,237.36,21z"/>
	<path class="st10" d="M237.36,21v126.9c0,2.76-2.24,5-5,5H45.39c-2.76,0-5-2.24-5-5V21c0-2.76,2.24-5,5-5h186.97
		C235.12,16,237.36,18.24,237.36,21z"/>
	<path class="st4" d="M191.67,236.83v11.67c0,2.76-2.24,5-5,5H69.33c-2.76,0-5-2.24-5-5v-11.67c0-2.76,2.24-5,5-5h117.34
		C189.43,231.83,191.67,234.07,191.67,236.83z"/>
	<path class="st5" d="M191.67,236.83v11.67c0,2.76-2.24,5-5,5H85.33c-2.76,0-5-2.24-5-5v-11.67c0-2.76,2.24-5,5-5h101.34
		C189.43,231.83,191.67,234.07,191.67,236.83z"/>
	<path class="st5" d="M173.83,52.82v83.96c0,2.76-2.24,5-5,5H87.17c-2.76,0-5-2.24-5-5V31.62c0-2.76,2.24-5,5-5h60.8
		c1.34,0,2.62,0.54,3.56,1.49l20.86,21.2C173.31,50.25,173.83,51.51,173.83,52.82z"/>
	<path class="st7" d="M173.83,52.82V66.5H82.17V31.62c0-2.76,2.24-5,5-5h60.8c1.34,0,2.62,0.54,3.56,1.49l20.86,21.2
		C173.31,50.25,173.83,51.51,173.83,52.82z"/>
	<path class="st7" d="M173.83,123.33v13.45c0,2.76-2.24,5-5,5H87.17c-2.76,0-5-2.24-5-5v-13.45H173.83z"/>
	<g>
		<path class="st8" d="M245.36,0.75H10.64c-3.86,0-7,3.14-7,7v152.896c0,3.86,3.14,7,7,7h101.53v61.932H69.333c-3.86,0-7,3.14-7,7
			v11.671c0,3.86,3.14,7,7,7h117.333c3.86,0,7-3.14,7-7v-11.671c0-3.86-3.14-7-7-7H143.83v-61.932h101.53c3.86,0,7-3.14,7-7V7.75
			C252.36,3.89,249.22,0.75,245.36,0.75z M186.667,233.579c1.654,0,3,1.346,3,3v11.671c0,1.654-1.346,3-3,3H69.333
			c-1.654,0-3-1.346-3-3v-11.671c0-1.654,1.346-3,3-3C80.174,233.579,174.118,233.579,186.667,233.579z M116.17,229.579v-61.932
			h23.66v61.932H116.17z M248.36,160.646c0,1.654-1.346,3-3,3H10.64c-1.654,0-3-1.346-3-3V7.75c0-1.654,1.346-3,3-3h234.72
			c1.654,0,3,1.346,3,3V160.646z"/>
		<path class="st8" d="M232.36,13.75H23.64c-3.86,0-7,3.14-7,7v126.896c0,3.86,3.14,7,7,7h208.72c3.86,0,7-3.14,7-7V20.75
			C239.36,16.89,236.22,13.75,232.36,13.75z M235.36,147.646c0,1.654-1.346,3-3,3H23.64c-1.654,0-3-1.346-3-3V20.75
			c0-1.654,1.346-3,3-3h208.72c1.654,0,3,1.346,3,3V147.646z"/>
		<path class="st8" d="M91.901,97.493c5.593,1.801-4.178,15.835,6.938,15.835c2.178,0,2.276-3.352,0.025-3.405
			c-1.288-0.03-1.942-0.316-1.942-1.795c0-5.106,2.12-10.498-1.75-12.413c2.816-1.364,2.448-4.669,2.063-8.144
			c-0.573-5.151-0.628-5.99,1.635-6.047c2.309-0.06,2.093-3.521-0.144-3.368c-11.301,0.733-0.84,13.808-6.853,15.798
			C90.233,94.499,90.34,96.99,91.901,97.493z"/>
		<path class="st8" d="M115.809,105.412c0-3.209-4.723-3.133-4.723,0C111.086,108.542,115.809,108.625,115.809,105.412z"/>
		<path class="st8" d="M128.032,107.804c3.089,0,3.092-4.784,0-4.784C124.862,103.02,124.86,107.804,128.032,107.804z"/>
		<path class="st8" d="M142.585,107.804c3.089,0,3.092-4.784,0-4.784C139.415,103.02,139.413,107.804,142.585,107.804z"/>
		<path class="st8" d="M157.156,81.522c2.253,0.057,2.183,0.928,1.611,6.031c-0.39,3.483-0.76,6.796,2.063,8.162
			c-3.856,1.91-1.75,7.27-1.75,12.412c0,1.471-0.65,1.758-1.93,1.793c-2.241,0.061-2.194,3.422,0.046,3.422
			c11.128-0.091,1.263-14.018,6.895-15.846c0.91-0.295,1.208-0.997,1.208-1.93c0-2.229-3.113-1.152-3.113-4.131
			c0-6.075,3.088-13.317-5.004-13.317C154.967,78.118,154.898,81.464,157.156,81.522z"/>
		<path class="st8" d="M152.955,26.71c-1.307-1.328-3.125-2.09-4.989-2.09H87.17c-3.86,0-7,3.14-7,7v105.16c0,3.86,3.14,7,7,7h81.66
			c3.86,0,7-3.14,7-7V52.818c0-1.849-0.714-3.593-2.011-4.91L152.955,26.71z M171.83,136.78c0,1.654-1.346,3-3,3H87.17
			c-1.654,0-3-1.346-3-3v-11.447h87.66V136.78z M171.83,121.333H84.17V68.5h87.66V121.333z M171.83,64.5H84.17V31.62
			c0-1.654,1.346-3,3-3h60.796c0.799,0,1.578,0.327,2.138,0.896l20.864,21.198C172.117,51.881,171.83,51.889,171.83,64.5z"/>
	</g>
</g>
</svg>
